<?xml version="1.0" encoding="UTF-8"?>
<svg width="32px" height="32px" viewBox="0 0 32 32" version="1.1" xmlns="http://www.w3.org/2000/svg" xmlns:xlink="http://www.w3.org/1999/xlink">
    <!-- Generator: Sketch 55.2 (78181) - https://sketchapp.com -->
    <title>icon/icon_quality@2x</title>
    <desc>Created with Sketch.</desc>
    <g id="icon/icon_quality" stroke="none" stroke-width="1" fill="none" fill-rule="evenodd">
        <g id="合规信息-copy" transform="translate(2.000000, 0.000000)" fill="#06173C" fill-rule="nonzero">
            <path d="M3.39470587,3.85431578 L14.3123529,0 L25.5660588,3.87115791 C27.6222494,4.57842397 29,6.49278147 29,8.64252631 L29,14.8168421 C29,19.7447835 26.4330446,24.3263659 22.2046177,26.9448421 L14.0411177,32 L6.44397058,26.9877895 C2.41771927,24.3315873 0,19.8663563 0,15.0854737 L0,8.61221053 C0,6.47747031 1.35871793,4.57301166 3.39470587,3.85431578 Z M13.9999486,19.9987555 L17.4680062,21.9047174 C17.622198,21.9894575 17.7988124,22.0186992 17.9705075,21.9879156 C18.4016798,21.9106096 18.6912642,21.4825529 18.6173124,21.0318244 L17.9549723,16.9949323 L20.7606899,14.1359896 C20.8854337,14.0088793 20.9666144,13.8423268 20.9916644,13.6621161 C21.0545716,13.2095589 20.7546156,12.7893794 20.321694,12.723619 L16.4442877,12.1346444 L14.7102589,8.46175871 C14.633163,8.29846015 14.506721,8.16628328 14.3505077,8.08569062 C13.9582141,7.88330088 13.4832467,8.0516723 13.2896383,8.46175871 L11.5556095,12.1346444 L7.67820315,12.723619 C7.50581149,12.7498051 7.34648532,12.8346679 7.22489019,12.9650696 C6.91953225,13.2925431 6.92594221,13.8167818 7.23920725,14.1359896 L10.0449248,16.9949323 L9.38258474,21.0318244 C9.35313673,21.2113068 9.3811097,21.3959318 9.46217312,21.5571171 C9.66574508,21.9618966 10.1446741,22.1175225 10.5318909,21.9047174 L13.9999486,19.9987555 Z" id="Shape"></path>
        </g>
    </g>
</svg>