<?xml version="1.0" encoding="UTF-8"?>
<svg width="32px" height="32px" viewBox="0 0 32 32" version="1.1" xmlns="http://www.w3.org/2000/svg" xmlns:xlink="http://www.w3.org/1999/xlink">
    <!-- Generator: Sketch 55.2 (78181) - https://sketchapp.com -->
    <title>icon/icon_compliance@2x</title>
    <desc>Created with Sketch.</desc>
    <g id="icon/icon_compliance" stroke="none" stroke-width="1" fill="none" fill-rule="evenodd">
        <g id="合规信息" transform="translate(2.000000, 0.000000)" fill="#06173C" fill-rule="nonzero">
            <path d="M3.39470587,3.85431578 L14.3123529,0 L25.5660588,3.87115791 C27.6222494,4.57842397 29,6.49278147 29,8.64252631 L29,14.8168421 C29,19.7447835 26.4330446,24.3263659 22.2046177,26.9448421 L14.0411177,32 L6.44397058,26.9877895 C2.41771927,24.3315873 0,19.8663563 0,15.0854737 L0,8.61221053 C0,6.47747031 1.35871793,4.57301166 3.39470587,3.85431578 Z M13.1335882,17.8341053 L9.26208825,14.0126316 C8.64748831,13.4327705 7.67633981,13.4436491 7.07522383,14.0371284 C6.47410785,14.6306077 6.46308924,15.5894186 7.05041176,16.1962105 L12.0264706,21.1115789 C12.3318235,21.4130526 12.7327059,21.5637895 13.1327353,21.5637895 C13.5336176,21.5637895 13.933647,21.4122105 14.239,21.1115789 L23.0874118,12.3755789 C23.4826421,11.9853697 23.6369971,11.4166274 23.4923327,10.8835916 C23.3476684,10.3505559 22.9259627,9.9342076 22.386068,9.79138111 C21.8461734,9.64855462 21.2701127,9.80094867 20.8748824,10.1911579 L13.1327353,17.8349474 L13.1335882,17.8341053 Z" id="Shape"></path>
        </g>
    </g>
</svg>