<?xml version="1.0" encoding="UTF-8"?>
<svg width="32px" height="32px" viewBox="0 0 32 32" version="1.1" xmlns="http://www.w3.org/2000/svg" xmlns:xlink="http://www.w3.org/1999/xlink">
    <!-- Generator: Sketch 55.2 (78181) - https://sketchapp.com -->
    <title>icon/icon_could@2x</title>
    <desc>Created with Sketch.</desc>
    <g id="icon/icon_could" stroke="none" stroke-width="1" fill="none" fill-rule="evenodd">
        <path d="M32,18.5190145 C32,14.3872871 28.5649325,11.0376864 24.3276436,11.0376864 C23.5683414,11.037272 22.8131762,11.1468287 22.0868042,11.3627795 C20.570206,8.1955964 17.2767116,6 13.4554081,6 C8.19618847,6 3.9326982,10.1574608 3.9326982,15.285785 C3.9326982,15.5925678 3.9488791,15.8958103 3.97862855,16.1950178 C1.70242506,16.6892811 0,18.6689228 0,21.0375722 C0,23.7783276 2.27858188,26 5.08914479,26 C5.11487826,26 5.14045577,25.9984773 5.16622823,25.9980966 L5.16622823,26 L24.4432103,26 L24.4432103,25.9971069 C28.6270438,25.9366563 32,22.6125606 32,18.5190145 L32,18.5190145 Z" id="Path" fill="#06173C" fill-rule="nonzero"></path>
    </g>
</svg>