<?xml version="1.0" encoding="UTF-8"?>
<svg width="32px" height="32px" viewBox="0 0 32 32" version="1.1" xmlns="http://www.w3.org/2000/svg" xmlns:xlink="http://www.w3.org/1999/xlink">
    <!-- Generator: Sketch 55.2 (78181) - https://sketchapp.com -->
    <title>icon/icon_security@2x</title>
    <desc>Created with Sketch.</desc>
    <g id="icon/icon_security" stroke="none" stroke-width="1" fill="none" fill-rule="evenodd">
        <path d="M10.6666667,14.6363636 L21.3333333,14.6363636 L21.3333333,10.5454545 C21.3333333,9.03977273 20.8125,7.75426136 19.7708333,6.68892045 C18.7291667,5.62357955 17.4722222,5.09090909 16,5.09090909 C14.5277778,5.09090909 13.2708333,5.62357955 12.2291667,6.68892045 C11.1875,7.75426136 10.6666667,9.03977273 10.6666667,10.5454545 L10.6666667,14.6363636 L10.6666667,14.6363636 Z M28,16.6818182 L28,28.9545455 C28,29.5227273 27.8055556,30.0056818 27.4166667,30.4034091 C27.0277778,30.8011364 26.5555556,31 26,31 L6,31 C5.44444444,31 4.97222222,30.8011364 4.58333333,30.4034091 C4.19444444,30.0056818 4,29.5227273 4,28.9545455 L4,16.6818182 C4,16.1136364 4.19444444,15.6306818 4.58333333,15.2329545 C4.97222222,14.8352273 5.44444444,14.6363636 6,14.6363636 L6.66666667,14.6363636 L6.66666667,10.5454545 C6.66666667,7.93181818 7.58333333,5.6875 9.41666667,3.8125 C11.25,1.9375 13.4444444,1 16,1 C18.5555556,1 20.75,1.9375 22.5833333,3.8125 C24.4166667,5.6875 25.3333333,7.93181818 25.3333333,10.5454545 L25.3333333,14.6363636 L26,14.6363636 C26.5555556,14.6363636 27.0277778,14.8352273 27.4166667,15.2329545 C27.8055556,15.6306818 28,16.1136364 28,16.6818182 Z" id="Shape" fill="#06173C" fill-rule="nonzero"></path>
    </g>
</svg>