<?xml version="1.0" encoding="UTF-8"?>
<svg width="18px" height="18px" viewBox="0 0 18 18" version="1.1" xmlns="http://www.w3.org/2000/svg" xmlns:xlink="http://www.w3.org/1999/xlink">
    <!-- Generator: Sketch 55.2 (78181) - https://sketchapp.com -->
    <title>icon/实验室@3x</title>
    <desc>Created with Sketch.</desc>
    <g id="icon/实验室" stroke="none" stroke-width="1" fill="none" fill-rule="evenodd">
        <path d="M11.0680055,4.64210526 L17.7120614,16.6646825 C17.9524806,17.0997268 17.7947058,17.6472982 17.3596615,17.8877174 C17.2263904,17.9613672 17.0766118,18 16.924344,18 L1.075656,18 C0.578599726,18 0.175656001,17.5970563 0.175656001,17.1 C0.175656001,16.9477322 0.214288784,16.7979536 0.287938619,16.6646825 L7.17631579,4.2 L4.26658033,1.5673822 C4.07799667,1.3967589 3.97040232,1.15431498 3.97040232,0.9 C3.97040232,0.402943725 4.37334604,-8.8817842e-16 4.87040232,0 L13.3734077,0 C13.6036868,8.8817842e-16 13.8252061,0.0882693263 13.9923779,0.246642584 C14.3532172,0.588490377 14.3686129,1.15813085 14.0267651,1.51897018 L11.0680055,4.64210526 Z" id="Combined-Shape" stroke="#768094" stroke-width="2"></path>
    </g>
</svg>