<?xml version="1.0" encoding="UTF-8"?>
<svg width="40px" height="40px" viewBox="0 0 40 40" version="1.1" xmlns="http://www.w3.org/2000/svg" xmlns:xlink="http://www.w3.org/1999/xlink">
    <!-- Generator: Sketch 55.2 (78181) - https://sketchapp.com -->
    <title>icon/icon_Visualization@3x</title>
    <desc>Created with Sketch.</desc>
    <g id="icon/icon_Visualization" stroke="none" stroke-width="1" fill="none" fill-rule="evenodd">
        <g id="Group-11" fill="#F2F9FE">
            <rect id="Rectangle" x="0" y="0" width="40" height="40" rx="2"></rect>
        </g>
        <g id="Group" transform="translate(8.000000, 13.000000)" stroke="#0091F4">
            <path d="M11.9994817,0 C4.15771281,0 0,7.41195095 0,7.41195095 C0,7.41195095 4.48925578,14 11.9994817,14 C19.5102426,14 24,7.41195095 24,7.41195095 C24,7.41195095 20.31153,0 11.9994817,0 L11.9994817,0 Z M12.0068382,11.2171773 C9.6157161,11.2171773 7.67725136,9.33184469 7.67725136,7.00654895 C7.67725136,4.68125322 9.61571612,2.79588733 12.0068382,2.79588733 C14.3979602,2.79588733 16.336425,4.68125323 16.336425,7.00654895 C16.336425,9.33184467 14.3979268,11.2171773 12.0068382,11.2171773 L12.0068382,11.2171773 Z" id="Shape" stroke-width="1.4"></path>
            <path d="M11.9999833,5.91458952 C11.2967457,5.91458952 10.729487,6.47534376 10.729487,7.16325729 C10.729487,7.85117082 11.2967457,8.41192506 11.9999833,8.41192506 C12.7032411,8.41192506 13.2704795,7.85118396 13.2704795,7.16325729 C13.2704795,6.47533061 12.7032411,5.91458952 11.9999833,5.91458952 Z" id="Path" stroke-width="1.25" fill="#0091F4"></path>
        </g>
    </g>
</svg>