<?xml version="1.0" encoding="UTF-8"?>
<svg width="72px" height="26px" viewBox="0 0 72 26" version="1.1" xmlns="http://www.w3.org/2000/svg" xmlns:xlink="http://www.w3.org/1999/xlink">
    <!-- Generator: Sketch 55.2 (78181) - https://sketchapp.com -->
    <title>Group 2@3x</title>
    <desc>Created with Sketch.</desc>
    <g id="Page-1" stroke="none" stroke-width="1" fill="none" fill-rule="evenodd">
        <g id="logo_bm_white_h-" transform="translate(-715.000000, -309.000000)" fill="#FFFFFF">
            <g id="Group-2" transform="translate(715.000000, 309.000000)">
                <g id="Group">
                    <path d="M0,1.64556962 L0,1.625 C0,0.727537282 0.732073405,0 1.63513172,0 L21.9302736,0 C22.3911801,0 22.8306813,0.193316679 23.140591,0.532363802 C23.7477997,1.19666184 23.6981621,2.22437169 23.0297222,2.827818 L11.7619559,13 L0.500137339,2.83318751 C0.166712446,2.48908971 0,2.09321708 0,1.64556962 Z" id="Path" opacity="0.800000012"></path>
                    <path d="M11.7619559,13 L23.0297222,23.172182 C23.6981621,23.7756283 23.7477997,24.8033382 23.140591,25.4676362 C22.8306813,25.8066833 22.3911801,26 21.9302736,26 L1.63513172,26 C0.732073405,26 0,25.2724627 0,24.375 L0,24.3544304 C0,23.9067829 0.166712446,23.5109103 0.500137339,23.1668125 L11.7619559,13 Z" id="Path" opacity="0.600000024"></path>
                    <path d="M11.7827085,13 L0.501019774,23.1721222 C0.167006591,23.5163997 0,23.9124791 0,24.3603604 L0,1.63963964 C0,2.08752089 0.167006591,2.48360027 0.501019774,2.82787778 L11.7827085,13 L11.7827085,13 Z" id="Path"></path>
                </g>
                <path d="M33.1513573,5.30353153 L33.1513573,3.26288288 C33.1513573,3.09798116 33.1202513,2.98718947 33.0580383,2.9305045 C32.9958252,2.87381954 32.8765854,2.84547748 32.7003152,2.84547748 L31.2849763,2.84547748 L31.2849763,5.72093694 L32.7003152,5.72093694 C32.8765854,5.72093694 32.9958252,5.69259488 33.0580383,5.63590991 C33.1202513,5.57922494 33.1513573,5.46843326 33.1513573,5.30353153 Z M33.1513573,9.5858018 L33.1513573,7.43693694 C33.1513573,7.27203521 33.1202513,7.16124353 33.0580383,7.10455856 C32.9958252,7.04787359 32.8765854,7.01953153 32.7003152,7.01953153 L31.2849763,7.01953153 L31.2849763,10.0032072 L32.7003152,10.0032072 C32.8765854,10.0032072 32.9958252,9.97486515 33.0580383,9.91818018 C33.1202513,9.86149521 33.1513573,9.75070353 33.1513573,9.5858018 Z M29.4963611,1.54688288 L33.2291232,1.54688288 C34.3593262,1.54688288 34.9244193,2.05703994 34.9244193,3.07736937 L34.9244193,5.17985586 C34.9244193,5.8291564 34.706677,6.22594522 34.2711859,6.37023423 C34.706677,6.51452324 34.9244193,6.88554656 34.9244193,7.48331532 L34.9244193,9.77131532 C34.9244193,10.7916447 34.3593262,11.3018018 33.2291232,11.3018018 L29.4963611,11.3018018 L29.4963611,1.54688288 Z M38.8353359,9.94136937 L41.4482693,9.94136937 L41.4482693,11.3018018 L37.0467207,11.3018018 L37.0467207,1.54688288 L38.8353359,1.54688288 L38.8353359,9.94136937 Z M46.9767161,11.3018018 L46.6034399,9.27661261 L44.4571018,9.27661261 L44.1149319,11.3018018 L42.3263168,11.3018018 L44.30157,1.54688288 L46.7123122,1.54688288 L48.7808845,11.3018018 L46.9767161,11.3018018 Z M44.6903994,7.93163964 L46.3545891,7.93163964 L45.4991645,3.26288288 L44.6903994,7.93163964 Z M55.4913726,4.77790991 L53.6872043,4.77790991 L53.6872043,3.26288288 C53.6872043,3.09798116 53.6560982,2.98718947 53.5938852,2.9305045 C53.5316722,2.87381954 53.4176167,2.84547748 53.2517154,2.84547748 L52.5207161,2.84547748 C52.3548148,2.84547748 52.2407593,2.87381954 52.1785463,2.9305045 C52.1163333,2.98718947 52.0852272,3.09798116 52.0852272,3.26288288 L52.0852272,9.60126126 C52.0852272,9.76616299 52.1163333,9.87695467 52.1785463,9.93363964 C52.2407593,9.99032461 52.3548148,10.0186667 52.5207161,10.0186667 L53.2517154,10.0186667 C53.4176167,10.0186667 53.5316722,9.99032461 53.5938852,9.93363964 C53.6560982,9.87695467 53.6872043,9.76616299 53.6872043,9.60126126 L53.6872043,8.11715315 L55.4913726,8.11715315 L55.4913726,9.78677477 C55.4913726,10.8071042 54.9262796,11.3172613 53.7960765,11.3172613 L51.976355,11.3172613 C50.846152,11.3172613 50.2810589,10.8071042 50.2810589,9.78677477 L50.2810589,3.07736937 C50.2810589,2.05703994 50.846152,1.54688288 51.976355,1.54688288 L53.7960765,1.54688288 C54.9262796,1.54688288 55.4913726,2.05703994 55.4913726,3.07736937 L55.4913726,4.77790991 Z M63.2128171,1.54688288 L61.1909044,6.40115315 L63.197264,11.3018018 L61.2686702,11.3018018 L59.3245233,6.40115315 L61.2842234,1.54688288 L63.2128171,1.54688288 Z M57.4581423,11.3018018 L57.4581423,1.54688288 L59.2467575,1.54688288 L59.2467575,11.3018018 L57.4581423,11.3018018 Z" id="BLACKMIRROR-Copy" fill-rule="nonzero"></path>
                <path d="M31.082785,24.3945586 L29.4963611,24.3945586 L29.4963611,14.6396396 L31.4560612,14.6396396 L33.1046978,18.7387387 L34.7533344,14.6396396 L36.7130344,14.6396396 L36.7130344,24.3945586 L35.1421637,24.3945586 L35.1421637,17.546018 L33.835697,20.5784144 L32.3892517,20.5784144 L31.082785,17.5614775 L31.082785,24.3945586 Z M39.021974,14.6396396 L40.8105891,14.6396396 L40.8105891,24.3945586 L39.021974,24.3945586 L39.021974,14.6396396 Z M44.8925907,20.5915315 L44.8925907,24.3945586 L43.1039755,24.3945586 L43.1039755,14.6396396 L46.7123122,14.6396396 C47.8425152,14.6396396 48.4076083,15.1497967 48.4076083,16.1701261 L48.4076083,19.061045 C48.4076083,19.9061664 48.0291515,20.4008641 47.2722265,20.5451532 L48.9053099,24.3945586 L46.9767161,24.3945586 L45.4836113,20.5915315 L44.8925907,20.5915315 Z M44.8925907,16.0000721 L44.8925907,19.2774775 L46.1835042,19.2774775 C46.3494056,19.2774775 46.4634611,19.2491354 46.5256741,19.1924505 C46.5878871,19.1357655 46.6189931,19.0249738 46.6189931,18.8600721 L46.6189931,16.4174775 C46.6189931,16.2525758 46.5878871,16.1417841 46.5256741,16.0850991 C46.4634611,16.0284141 46.3494056,16.0000721 46.1835042,16.0000721 L44.8925907,16.0000721 Z M59.5267146,14.6396396 L61.424202,14.6396396 C62.554405,14.6396396 63.1194981,15.1497967 63.1194981,16.1701261 L63.1194981,22.8640721 C63.1194981,23.8844015 62.554405,24.3945586 61.424202,24.3945586 L59.5267146,24.3945586 C58.3965116,24.3945586 57.8314185,23.8844015 57.8314185,22.8640721 L57.8314185,16.1701261 C57.8314185,15.1497967 58.3965116,14.6396396 59.5267146,14.6396396 Z M61.3308829,22.6167207 L61.3308829,16.4174775 C61.3308829,16.2525758 61.2997769,16.1417841 61.2375639,16.0850991 C61.1753509,16.0284141 61.0612954,16.0000721 60.895394,16.0000721 L60.0710757,16.0000721 C59.8948055,16.0000721 59.7755657,16.0284141 59.7133527,16.0850991 C59.6511397,16.1417841 59.6200337,16.2525758 59.6200337,16.4174775 L59.6200337,22.6167207 C59.6200337,22.7816224 59.6511397,22.8924141 59.7133527,22.9490991 C59.7755657,23.0057841 59.8948055,23.0341261 60.0710757,23.0341261 L60.895394,23.0341261 C61.0612954,23.0341261 61.1753509,23.0057841 61.2375639,22.9490991 C61.2997769,22.8924141 61.3308829,22.7816224 61.3308829,22.6167207 Z M67.061521,20.5915315 L67.061521,24.3945586 L65.2729059,24.3945586 L65.2729059,14.6396396 L68.8812425,14.6396396 C70.0114456,14.6396396 70.5765386,15.1497967 70.5765386,16.1701261 L70.5765386,19.061045 C70.5765386,19.9061664 70.1980818,20.4008641 69.4411568,20.5451532 L71.0742402,24.3945586 L69.1456465,24.3945586 L67.6525417,20.5915315 L67.061521,20.5915315 Z M67.061521,16.0000721 L67.061521,19.2774775 L68.3524346,19.2774775 C68.5183359,19.2774775 68.6323914,19.2491354 68.6946044,19.1924505 C68.7568174,19.1357655 68.7879235,19.0249738 68.7879235,18.8600721 L68.7879235,16.4174775 C68.7879235,16.2525758 68.7568174,16.1417841 68.6946044,16.0850991 C68.6323914,16.0284141 68.5183359,16.0000721 68.3524346,16.0000721 L67.061521,16.0000721 Z" id="BLACKMIRROR-Copy-2" fill-rule="nonzero"></path>
                <path d="M58.1787728,20.5915315 L58.1787728,24.3945586 L56.3901576,24.3945586 L56.3901576,14.6396396 L59.9984943,14.6396396 C61.1286973,14.6396396 61.6937904,15.1497967 61.6937904,16.1701261 L61.6937904,19.061045 C61.6937904,19.9061664 61.3153335,20.4008641 60.5584086,20.5451532 L62.191492,24.3945586 L60.2628982,24.3945586 L58.7697934,20.5915315 L58.1787728,20.5915315 Z M58.1787728,16.0000721 L58.1787728,19.2774775 L59.4696863,19.2774775 C59.6355877,19.2774775 59.7496431,19.2491354 59.8118562,19.1924505 C59.8740692,19.1357655 59.9051752,19.0249738 59.9051752,18.8600721 L59.9051752,16.4174775 C59.9051752,16.2525758 59.8740692,16.1417841 59.8118562,16.0850991 C59.7496431,16.0284141 59.6355877,16.0000721 59.4696863,16.0000721 L58.1787728,16.0000721 Z" id="BLACKMIRROR-Copy-3" fill-rule="nonzero" transform="translate(56.176655, 12.958541) scale(-1, 1) translate(-56.176655, -12.958541) "></path>
            </g>
        </g>
    </g>
</svg>