<?xml version="1.0" encoding="UTF-8"?>
<svg width="72px" height="26px" viewBox="0 0 72 26" version="1.1" xmlns="http://www.w3.org/2000/svg" xmlns:xlink="http://www.w3.org/1999/xlink">
    <!-- Generator: Sketch 55.2 (78181) - https://sketchapp.com -->
    <title>Group 3@3x</title>
    <desc>Created with Sketch.</desc>
    <g id="Page-1" stroke="none" stroke-width="1" fill="none" fill-rule="evenodd">
        <g id="logo_bm_theme_h-copy" transform="translate(-715.000000, -309.000000)">
            <g id="Group-3" transform="translate(715.000000, 309.000000)">
                <g id="Group">
                    <path d="M0,1.64556962 L0,1.625 C0,0.727537282 0.732073405,0 1.63513172,0 L21.9302736,0 C22.3911801,0 22.8306813,0.193316679 23.140591,0.532363802 C23.7477997,1.19666184 23.6981621,2.22437169 23.0297222,2.827818 L11.7619559,13 L0.500137339,2.83318751 C0.166712446,2.48908971 0,2.09321708 0,1.64556962 Z" id="Path" fill="#33A7F7"></path>
                    <path d="M11.7619559,13 L23.0297222,23.172182 C23.6981621,23.7756283 23.7477997,24.8033382 23.140591,25.4676362 C22.8306813,25.8066833 22.3911801,26 21.9302736,26 L1.63513172,26 C0.732073405,26 0,25.2724627 0,24.375 L0,24.3544304 C0,23.9067829 0.166712446,23.5109103 0.500137339,23.1668125 L11.7619559,13 Z" id="Path" fill="#EE8363"></path>
                    <path d="M11.7827085,13 L0.501019774,23.1721222 C0.167006591,23.5163997 0,23.9124791 0,24.3603604 L0,1.63963964 C0,2.08752089 0.167006591,2.48360027 0.501019774,2.82787778 L11.7827085,13 L11.7827085,13 Z" id="Path" fill="#0B265D"></path>
                </g>
                <g id="Group-2" transform="translate(29.496361, 14.522523)" fill="#0B265D" fill-rule="nonzero">
                    <path d="M1.58642387,9.87203604 L0,9.87203604 L0,0.117117117 L1.95970008,0.117117117 L3.60833665,4.21621622 L5.25697322,0.117117117 L7.2166733,0.117117117 L7.2166733,9.87203604 L5.6458026,9.87203604 L5.6458026,3.0234955 L4.33933588,6.05589189 L2.89289059,6.05589189 L1.58642387,3.03895495 L1.58642387,9.87203604 Z M9.52561285,0.117117117 L11.314228,0.117117117 L11.314228,9.87203604 L9.52561285,9.87203604 L9.52561285,0.117117117 Z M15.3962295,6.06900901 L15.3962295,9.87203604 L13.6076144,9.87203604 L13.6076144,0.117117117 L17.215951,0.117117117 C18.3461541,0.117117117 18.9112471,0.627274178 18.9112471,1.6476036 L18.9112471,4.53852252 C18.9112471,5.38364387 18.5327903,5.87834162 17.7758653,6.02263063 L19.4089487,9.87203604 L17.480355,9.87203604 L15.9872502,6.06900901 L15.3962295,6.06900901 Z M15.3962295,1.47754955 L15.3962295,4.75495495 L16.6871431,4.75495495 C16.8530444,4.75495495 16.9670999,4.7266129 17.0293129,4.66992793 C17.0915259,4.61324296 17.122632,4.50245127 17.122632,4.33754955 L17.122632,1.89495495 C17.122632,1.73005323 17.0915259,1.61926154 17.0293129,1.56257658 C16.9670999,1.50589161 16.8530444,1.47754955 16.6871431,1.47754955 L15.3962295,1.47754955 Z M30.0303535,0.117117117 L31.9278409,0.117117117 C33.0580439,0.117117117 33.623137,0.627274178 33.623137,1.6476036 L33.623137,8.34154955 C33.623137,9.36187898 33.0580439,9.87203604 31.9278409,9.87203604 L30.0303535,9.87203604 C28.9001504,9.87203604 28.3350574,9.36187898 28.3350574,8.34154955 L28.3350574,1.6476036 C28.3350574,0.627274178 28.9001504,0.117117117 30.0303535,0.117117117 Z M31.8345218,8.0941982 L31.8345218,1.89495495 C31.8345218,1.73005323 31.8034158,1.61926154 31.7412028,1.56257658 C31.6789897,1.50589161 31.5649343,1.47754955 31.3990329,1.47754955 L30.5747146,1.47754955 C30.3984444,1.47754955 30.2792046,1.50589161 30.2169916,1.56257658 C30.1547786,1.61926154 30.1236725,1.73005323 30.1236725,1.89495495 L30.1236725,8.0941982 C30.1236725,8.25909992 30.1547786,8.36989161 30.2169916,8.42657658 C30.2792046,8.48326154 30.3984444,8.5116036 30.5747146,8.5116036 L31.3990329,8.5116036 C31.5649343,8.5116036 31.6789897,8.48326154 31.7412028,8.42657658 C31.8034158,8.36989161 31.8345218,8.25909992 31.8345218,8.0941982 Z M37.5651599,6.06900901 L37.5651599,9.87203604 L35.7765448,9.87203604 L35.7765448,0.117117117 L39.3848814,0.117117117 C40.5150845,0.117117117 41.0801775,0.627274178 41.0801775,1.6476036 L41.0801775,4.53852252 C41.0801775,5.38364387 40.7017207,5.87834162 39.9447957,6.02263063 L41.5778791,9.87203604 L39.6492854,9.87203604 L38.1561806,6.06900901 L37.5651599,6.06900901 Z M37.5651599,1.47754955 L37.5651599,4.75495495 L38.8560735,4.75495495 C39.0219748,4.75495495 39.1360303,4.7266129 39.1982433,4.66992793 C39.2604563,4.61324296 39.2915624,4.50245127 39.2915624,4.33754955 L39.2915624,1.89495495 C39.2915624,1.73005323 39.2604563,1.61926154 39.1982433,1.56257658 C39.1360303,1.50589161 39.0219748,1.47754955 38.8560735,1.47754955 L37.5651599,1.47754955 Z" id="BLACKMIRROR-Copy-2"></path>
                    <path d="M22.4540719,6.06900901 L22.4540719,9.87203604 L20.6654568,9.87203604 L20.6654568,0.117117117 L24.2737934,0.117117117 C25.4039965,0.117117117 25.9690895,0.627274178 25.9690895,1.6476036 L25.9690895,4.53852252 C25.9690895,5.38364387 25.5906327,5.87834162 24.8337077,6.02263063 L26.4667911,9.87203604 L24.5381974,9.87203604 L23.0450926,6.06900901 L22.4540719,6.06900901 Z M22.4540719,1.47754955 L22.4540719,4.75495495 L23.7449855,4.75495495 C23.9108868,4.75495495 24.0249423,4.7266129 24.0871553,4.66992793 C24.1493683,4.61324296 24.1804744,4.50245127 24.1804744,4.33754955 L24.1804744,1.89495495 C24.1804744,1.73005323 24.1493683,1.61926154 24.0871553,1.56257658 C24.0249423,1.50589161 23.9108868,1.47754955 23.7449855,1.47754955 L22.4540719,1.47754955 Z" id="BLACKMIRROR-Copy-3" transform="translate(23.566124, 4.994577) scale(-1, 1) translate(-23.566124, -4.994577) "></path>
                </g>
                <path d="M33.1513573,5.30353153 L33.1513573,3.26288288 C33.1513573,3.09798116 33.1202513,2.98718947 33.0580383,2.9305045 C32.9958252,2.87381954 32.8765854,2.84547748 32.7003152,2.84547748 L31.2849763,2.84547748 L31.2849763,5.72093694 L32.7003152,5.72093694 C32.8765854,5.72093694 32.9958252,5.69259488 33.0580383,5.63590991 C33.1202513,5.57922494 33.1513573,5.46843326 33.1513573,5.30353153 Z M33.1513573,9.5858018 L33.1513573,7.43693694 C33.1513573,7.27203521 33.1202513,7.16124353 33.0580383,7.10455856 C32.9958252,7.04787359 32.8765854,7.01953153 32.7003152,7.01953153 L31.2849763,7.01953153 L31.2849763,10.0032072 L32.7003152,10.0032072 C32.8765854,10.0032072 32.9958252,9.97486515 33.0580383,9.91818018 C33.1202513,9.86149521 33.1513573,9.75070353 33.1513573,9.5858018 Z M29.4963611,1.54688288 L33.2291232,1.54688288 C34.3593262,1.54688288 34.9244193,2.05703994 34.9244193,3.07736937 L34.9244193,5.17985586 C34.9244193,5.8291564 34.706677,6.22594522 34.2711859,6.37023423 C34.706677,6.51452324 34.9244193,6.88554656 34.9244193,7.48331532 L34.9244193,9.77131532 C34.9244193,10.7916447 34.3593262,11.3018018 33.2291232,11.3018018 L29.4963611,11.3018018 L29.4963611,1.54688288 Z M38.8353359,9.94136937 L41.4482693,9.94136937 L41.4482693,11.3018018 L37.0467207,11.3018018 L37.0467207,1.54688288 L38.8353359,1.54688288 L38.8353359,9.94136937 Z M46.9767161,11.3018018 L46.6034399,9.27661261 L44.4571018,9.27661261 L44.1149319,11.3018018 L42.3263168,11.3018018 L44.30157,1.54688288 L46.7123122,1.54688288 L48.7808845,11.3018018 L46.9767161,11.3018018 Z M44.6903994,7.93163964 L46.3545891,7.93163964 L45.4991645,3.26288288 L44.6903994,7.93163964 Z M55.4913726,4.77790991 L53.6872043,4.77790991 L53.6872043,3.26288288 C53.6872043,3.09798116 53.6560982,2.98718947 53.5938852,2.9305045 C53.5316722,2.87381954 53.4176167,2.84547748 53.2517154,2.84547748 L52.5207161,2.84547748 C52.3548148,2.84547748 52.2407593,2.87381954 52.1785463,2.9305045 C52.1163333,2.98718947 52.0852272,3.09798116 52.0852272,3.26288288 L52.0852272,9.60126126 C52.0852272,9.76616299 52.1163333,9.87695467 52.1785463,9.93363964 C52.2407593,9.99032461 52.3548148,10.0186667 52.5207161,10.0186667 L53.2517154,10.0186667 C53.4176167,10.0186667 53.5316722,9.99032461 53.5938852,9.93363964 C53.6560982,9.87695467 53.6872043,9.76616299 53.6872043,9.60126126 L53.6872043,8.11715315 L55.4913726,8.11715315 L55.4913726,9.78677477 C55.4913726,10.8071042 54.9262796,11.3172613 53.7960765,11.3172613 L51.976355,11.3172613 C50.846152,11.3172613 50.2810589,10.8071042 50.2810589,9.78677477 L50.2810589,3.07736937 C50.2810589,2.05703994 50.846152,1.54688288 51.976355,1.54688288 L53.7960765,1.54688288 C54.9262796,1.54688288 55.4913726,2.05703994 55.4913726,3.07736937 L55.4913726,4.77790991 Z M63.2128171,1.54688288 L61.1909044,6.40115315 L63.197264,11.3018018 L61.2686702,11.3018018 L59.3245233,6.40115315 L61.2842234,1.54688288 L63.2128171,1.54688288 Z M57.4581423,11.3018018 L57.4581423,1.54688288 L59.2467575,1.54688288 L59.2467575,11.3018018 L57.4581423,11.3018018 Z" id="BLACKMIRROR-Copy" fill="#0B265D" fill-rule="nonzero"></path>
            </g>
        </g>
    </g>
</svg>